HIERARCHY
ROOT Hips
{
  OFFSET 5.175 31.576 -257.133
  CHANNELS 6 Xposition Yposition Zposition Zrotation Xrotation Yrotation
  JOINT LeftUpLeg
  {
    OFFSET 2.871 -2.083 1.906
    CHANNELS 6 Xposition Yposition Zposition Zrotation Xrotation Yrotation
    JOINT LeftLeg
    {
      OFFSET -0.000 -44.717 0.000
      CHANNELS 6 Xposition Yposition Zposition Zrotation Xrotation Yrotation
      JOINT LeftFoot
      {
        OFFSET 0.000 -31.556 -0.000
        CHANNELS 6 Xposition Yposition Zposition Zrotation Xrotation Yrotation
        End Site
        {
          OFFSET -0.000 -6.580 3.799
        }
      }
    }
  }
  JOINT RightUpLeg
  {
    OFFSET -3.011 -3.030 3.787
    CHANNELS 6 Xposition Yposition Zposition Zrotation Xrotation Yrotation
    JOINT RightLeg
    {
      OFFSET -0.000 -48.130 0.000
      CHANNELS 6 Xposition Yposition Zposition Zrotation Xrotation Yrotation
      JOINT RightFoot
      {
        OFFSET 0.000 -41.709 -0.000
        CHANNELS 6 Xposition Yposition Zposition Zrotation Xrotation Yrotation
        End Site
        {
          OFFSET -0.000 -7.009 4.047
        }
      }
    }
  }
  JOINT Spine
  {
    OFFSET 0.000 4.532 -4.532
    CHANNELS 6 Xposition Yposition Zposition Zrotation Xrotation Yrotation
    JOINT LeftShoulder
    {
      OFFSET -0.000 35.730 0.000
      CHANNELS 6 Xposition Yposition Zposition Zrotation Xrotation Yrotation
      JOINT LeftArm
      {
        OFFSET 15.655 0.000 -0.000
        CHANNELS 6 Xposition Yposition Zposition Zrotation Xrotation Yrotation
        JOINT LeftForeArm
        {
          OFFSET 27.696 0.000 0.000
          CHANNELS 6 Xposition Yposition Zposition Zrotation Xrotation Yrotation
          JOINT LeftHand
          {
            OFFSET 25.407 -0.000 -0.000
            CHANNELS 6 Xposition Yposition Zposition Zrotation Xrotation Yrotation
            JOINT LeftHandThumb1
            {
            OFFSET 4.970 -0.620 3.390
            CHANNELS 6 Xposition Yposition Zposition Zrotation Xrotation Yrotation
              JOINT LeftHandThumb2
              {
              OFFSET 2.150 -0.000 0.000
              CHANNELS 6 Xposition Yposition Zposition Zrotation Xrotation Yrotation
                JOINT LeftHandThumb3
                {
                OFFSET 2.200 -0.000 0.000
                CHANNELS 6 Xposition Yposition Zposition Zrotation Xrotation Yrotation
                  JOINT LeftHandThumb4
                  {
                  OFFSET 1.700 -0.000 0.000
                  CHANNELS 6 Xposition Yposition Zposition Zrotation Xrotation Yrotation
                  }
                }
              }
            }
            JOINT LeftHandIndex1
            {
            OFFSET 8.730 0.680 2.070
            CHANNELS 6 Xposition Yposition Zposition Zrotation Xrotation Yrotation
              JOINT LeftHandIndex2
              {
              OFFSET 2.670 -0.000 0.000
              CHANNELS 6 Xposition Yposition Zposition Zrotation Xrotation Yrotation
                JOINT LeftHandIndex3
                {
                OFFSET 2.130 -0.000 0.000
                CHANNELS 6 Xposition Yposition Zposition Zrotation Xrotation Yrotation
                  JOINT LeftHandIndex4
                  {
                  OFFSET 1.800 -0.000 0.000
                  CHANNELS 6 Xposition Yposition Zposition Zrotation Xrotation Yrotation
                  }
                }
              }
            }
            JOINT LeftHandMiddle1
            {
            OFFSET 9.220 0.670 0.550
            CHANNELS 6 Xposition Yposition Zposition Zrotation Xrotation Yrotation
              JOINT LeftHandMiddle2
              {
              OFFSET 2.660 -0.000 0.000
              CHANNELS 6 Xposition Yposition Zposition Zrotation Xrotation Yrotation
                JOINT LeftHandMiddle3
                {
                OFFSET 2.280 -0.000 0.000
                CHANNELS 6 Xposition Yposition Zposition Zrotation Xrotation Yrotation
                  JOINT LeftHandMiddle4
                  {
                  OFFSET 1.500 -0.000 0.000
                  CHANNELS 6 Xposition Yposition Zposition Zrotation Xrotation Yrotation
                  }
                }
              }
            }
            JOINT LeftHandRing1
            {
            OFFSET 9.250 0.670 -1.130
            CHANNELS 6 Xposition Yposition Zposition Zrotation Xrotation Yrotation
              JOINT LeftHandRing2
              {
              OFFSET 2.470 -0.000 0.000
              CHANNELS 6 Xposition Yposition Zposition Zrotation Xrotation Yrotation
                JOINT LeftHandRing3
                {
                OFFSET 2.210 -0.000 0.000
                CHANNELS 6 Xposition Yposition Zposition Zrotation Xrotation Yrotation
                  JOINT LeftHandRing4
                  {
                  OFFSET 1.800 -0.000 0.000
                  CHANNELS 6 Xposition Yposition Zposition Zrotation Xrotation Yrotation
                  }
                }
              }
            }
            JOINT LeftHandPinky1
            {
            OFFSET 9.350 0.660 -2.720
            CHANNELS 6 Xposition Yposition Zposition Zrotation Xrotation Yrotation
              JOINT LeftHandPinky2
              {
              OFFSET 1.630 -0.000 0.000
              CHANNELS 6 Xposition Yposition Zposition Zrotation Xrotation Yrotation
                JOINT LeftHandPinky3
                {
                OFFSET 1.710 -0.000 0.000
                CHANNELS 6 Xposition Yposition Zposition Zrotation Xrotation Yrotation
                  JOINT LeftHandPinky4
                  {
                  OFFSET 1.800 -0.000 0.000
                  CHANNELS 6 Xposition Yposition Zposition Zrotation Xrotation Yrotation
                  }
                }
              }
            }
          }
        }
      }
    }
    JOINT RightShoulder
    {
      OFFSET -0.000 35.730 0.000
      CHANNELS 6 Xposition Yposition Zposition Zrotation Xrotation Yrotation
      JOINT RightArm
      {
        OFFSET -15.478 0.000 -0.000
        CHANNELS 6 Xposition Yposition Zposition Zrotation Xrotation Yrotation
        JOINT RightForeArm
        {
          OFFSET -24.991 0.000 0.000
          CHANNELS 6 Xposition Yposition Zposition Zrotation Xrotation Yrotation
          JOINT RightHand
          {
            OFFSET -25.225 0.000 -0.000
            CHANNELS 6 Xposition Yposition Zposition Zrotation Xrotation Yrotation
            JOINT RightHandThumb1
            {
            OFFSET -4.970 -0.620 3.390
            CHANNELS 6 Xposition Yposition Zposition Zrotation Xrotation Yrotation
              JOINT RightHandThumb2
              {
              OFFSET -2.150 0.000 0.000
              CHANNELS 6 Xposition Yposition Zposition Zrotation Xrotation Yrotation
                JOINT RightHandThumb3
                {
                OFFSET -2.200 0.000 0.000
                CHANNELS 6 Xposition Yposition Zposition Zrotation Xrotation Yrotation
                  JOINT RightHandThumb4
                  {
                  OFFSET -1.700 0.000 0.000
                  CHANNELS 6 Xposition Yposition Zposition Zrotation Xrotation Yrotation
                  }
                }
              }
            }
            JOINT RightHandIndex1
            {
            OFFSET -8.730 0.680 2.070
            CHANNELS 6 Xposition Yposition Zposition Zrotation Xrotation Yrotation
              JOINT RightHandIndex2
              {
              OFFSET -2.670 0.000 0.000
              CHANNELS 6 Xposition Yposition Zposition Zrotation Xrotation Yrotation
                JOINT RightHandIndex3
                {
                OFFSET -2.130 0.000 0.000
                CHANNELS 6 Xposition Yposition Zposition Zrotation Xrotation Yrotation
                  JOINT RightHandIndex4
                  {
                  OFFSET -1.800 0.000 0.000
                  CHANNELS 6 Xposition Yposition Zposition Zrotation Xrotation Yrotation
                  }
                }
              }
            }
            JOINT RightHandMiddle1
            {
            OFFSET -9.220 0.670 0.550
            CHANNELS 6 Xposition Yposition Zposition Zrotation Xrotation Yrotation
              JOINT RightHandMiddle2
              {
              OFFSET -2.660 0.000 0.000
              CHANNELS 6 Xposition Yposition Zposition Zrotation Xrotation Yrotation
                JOINT RightHandMiddle3
                {
                OFFSET -2.280 0.000 0.000
                CHANNELS 6 Xposition Yposition Zposition Zrotation Xrotation Yrotation
                  JOINT RightHandMiddle4
                  {
                  OFFSET -1.500 0.000 0.000
                  CHANNELS 6 Xposition Yposition Zposition Zrotation Xrotation Yrotation
                  }
                }
              }
            }
            JOINT RightHandRing1
            {
            OFFSET -9.250 0.670 -1.130
            CHANNELS 6 Xposition Yposition Zposition Zrotation Xrotation Yrotation
              JOINT RightHandRing2
              {
              OFFSET -2.470 0.000 0.000
              CHANNELS 6 Xposition Yposition Zposition Zrotation Xrotation Yrotation
                JOINT RightHandRing3
                {
                OFFSET -2.210 0.000 0.000
                CHANNELS 6 Xposition Yposition Zposition Zrotation Xrotation Yrotation
                  JOINT RightHandRing4
                  {
                  OFFSET -1.800 0.000 0.000
                  CHANNELS 6 Xposition Yposition Zposition Zrotation Xrotation Yrotation
                  }
                }
              }
            }
            JOINT RightHandPinky1
            {
            OFFSET -9.350 0.660 -2.720
            CHANNELS 6 Xposition Yposition Zposition Zrotation Xrotation Yrotation
              JOINT RightHandPinky2
              {
              OFFSET -1.630 0.000 0.000
              CHANNELS 6 Xposition Yposition Zposition Zrotation Xrotation Yrotation
                JOINT RightHandPinky3
                {
                OFFSET -1.710 0.000 0.000
                CHANNELS 6 Xposition Yposition Zposition Zrotation Xrotation Yrotation
                  JOINT RightHandPinky4
                  {
                  OFFSET -1.800 0.000 0.000
                  CHANNELS 6 Xposition Yposition Zposition Zrotation Xrotation Yrotation
                  }
                }
              }
            }
          }
        }
      }
    }
    JOINT Neck
    {
      OFFSET -0.000 35.730 0.000
      CHANNELS 6 Xposition Yposition Zposition Zrotation Xrotation Yrotation
      JOINT Head
      {
        OFFSET -0.000 16.431 -0.000
        CHANNELS 6 Xposition Yposition Zposition Zrotation Xrotation Yrotation
        End Site
        {
          OFFSET -0.000 0.066 -0.000
        }
      }
    }
  }
}
MOTION
Frames:	5
Frame Time:	0.0333333
27.4738 42.6179 -256.728 -15.1227 50.7128 30.7571 4.56439 -2.02792 3.00803 -19.3184 -24.162 -9.1213 1.19209e-05 -51.1512 -4.76837e-05 5.35923 -22.0587 -7.98888 -5.96046e-06 -39.9946 -2.38419e-05 31.7538 -6.14539 23.1256 -4.81206 -3.32206 3.46575 -19.327 -48.8251 -19.3311 -1.19209e-05 -52.5061 4.76837e-05 2.94619 5.2787 -0.271292 -5.96046e-06 -38.9789 -9.53674e-05 39.649 2.06188 26.7144 1.19209e-05 3.06913 -3.06915 -6.59673 -47.5815 -4.77564 0 35.7299 -2.38419e-05 -61.3413 8.53774e-06 -6.11386 17.7338 1.19209e-05 4.76837e-05 -5.12449 76.0601 -27.013 20.0484 -5.96046e-05 -2.38419e-05 1.26088e-05 1.70755e-06 -82.2876 21.8389 0 -1.19209e-05 -10.4918 0.0546739 -2.29601 0.0062 0.0497 0.0339 0 0 0 0 0.0215 0 0 0 0 0 0.022 0 0 0 0 0 0.017 0 0 0 0 -0.0068 0.0873 0.0207 0 0 0 0 0.0267 0 0 0 0 0 0.0213 0 0 0 0 0 0.018 0 0 0 0 -0.0067 0.0922 0.0055 0 0 0 0 0.0266 0 0 0 0 0 0.0228 0 0 0 0 0 0.015 0 0 0 0 -0.0067 0.0925 -0.0113 0 0 0 0 0.0247 0 0 0 0 0 0.0221 0 0 0 0 0 0.018 0 0 0 0 -0.0066 0.0935 -0.0272 0 0 0 0 0.0163 0 0 0 0 0 0.0171 0 0 0 0 0 0.018 0 0 0 0 0 35.7299 -2.38419e-05 55.5792 -6.83019e-06 5.47401 -19.7992 0 4.76837e-05 -2.90636 63.8896 27.6512 -21.6316 2.38419e-05 -2.98023e-06 4.84298e-06 -3.57518e-06 28.3827 -21.9864 0 -1.19209e-05 10.1426 0.0848632 -6.23573 -0.0062 0.0497 0.0339 0 0 0 0 0.0215 0 0 0 0 0 0.022 0 0 0 0 0 0.017 0 0 0 0 0.0068 0.0873 0.0207 0 0 0 0 0.0267 0 0 0 0 0 0.0213 0 0 0 0 0 0.018 0 0 0 0 0.0067 0.0922 0.0055 0 0 0 0 0.0266 0 0 0 0 0 0.0228 0 0 0 0 0 0.015 0 0 0 0 0.0067 0.0925 -0.0113 0 0 0 0 0.0247 0 0 0 0 0 0.0221 0 0 0 0 0 0.018 0 0 0 0 0.0066 0.0935 -0.0272 0 0 0 0 0.0163 0 0 0 0 0 0.0171 0 0 0 0 0 0.018 0 0 0 0 0 35.7299 -2.38419e-05 47.2291 -20.0338 20.3208 0 6.71425 2.38419e-05 9.07134e-06 -8.64446e-06 -3.41509e-06 
27.4738 42.6179 -256.728 -15.1227 50.7128 30.7571 4.56439 -2.02792 3.00803 -19.3184 -24.162 -9.1213 1.19209e-05 -51.1512 -4.76837e-05 5.35923 -22.0587 -7.98888 -5.96046e-06 -39.9946 -2.38419e-05 31.7538 -6.14539 23.1256 -4.81206 -3.32206 3.46575 -19.327 -48.8251 -19.3311 -1.19209e-05 -52.5061 4.76837e-05 2.94619 5.2787 -0.271292 -5.96046e-06 -38.9789 -9.53674e-05 39.649 2.06188 26.7144 1.19209e-05 3.06913 -3.06915 -6.59673 -47.5815 -4.77564 0 35.7299 -2.38419e-05 -61.3413 8.53774e-06 -6.11386 17.7338 1.19209e-05 4.76837e-05 -5.12449 76.0601 -27.013 20.0484 -5.96046e-05 -2.38419e-05 1.26088e-05 1.70755e-06 -82.2876 21.8389 0 -1.19209e-05 -10.4918 0.0546739 -2.29601 0.0062 0.0497 0.0339 0 0 0 0 0.0215 0 0 0 0 0 0.022 0 0 0 0 0 0.017 0 0 0 0 -0.0068 0.0873 0.0207 0 0 0 0 0.0267 0 0 0 0 0 0.0213 0 0 0 0 0 0.018 0 0 0 0 -0.0067 0.0922 0.0055 0 0 0 0 0.0266 0 0 0 0 0 0.0228 0 0 0 0 0 0.015 0 0 0 0 -0.0067 0.0925 -0.0113 0 0 0 0 0.0247 0 0 0 0 0 0.0221 0 0 0 0 0 0.018 0 0 0 0 -0.0066 0.0935 -0.0272 0 0 0 0 0.0163 0 0 0 0 0 0.0171 0 0 0 0 0 0.018 0 0 0 0 0 35.7299 -2.38419e-05 55.5792 -6.83019e-06 5.47401 -19.7992 0 4.76837e-05 -2.90636 63.8896 27.6512 -21.6316 2.38419e-05 -2.98023e-06 4.84298e-06 -3.57518e-06 28.3827 -21.9864 0 -1.19209e-05 10.1426 0.0848632 -6.23573 -0.0062 0.0497 0.0339 0 0 0 0 0.0215 0 0 0 0 0 0.022 0 0 0 0 0 0.017 0 0 0 0 0.0068 0.0873 0.0207 0 0 0 0 0.0267 0 0 0 0 0 0.0213 0 0 0 0 0 0.018 0 0 0 0 0.0067 0.0922 0.0055 0 0 0 0 0.0266 0 0 0 0 0 0.0228 0 0 0 0 0 0.015 0 0 0 0 0.0067 0.0925 -0.0113 0 0 0 0 0.0247 0 0 0 0 0 0.0221 0 0 0 0 0 0.018 0 0 0 0 0.0066 0.0935 -0.0272 0 0 0 0 0.0163 0 0 0 0 0 0.0171 0 0 0 0 0 0.018 0 0 0 0 0 35.7299 -2.38419e-05 47.2291 -20.0338 20.3208 0 6.71425 2.38419e-05 9.07134e-06 -8.64446e-06 -3.41509e-06 
27.4738 42.6179 -256.728 -15.1227 50.7128 30.7571 4.56439 -2.02792 3.00803 -19.3184 -24.162 -9.1213 1.19209e-05 -51.1512 -4.76837e-05 5.35923 -22.0587 -7.98888 -5.96046e-06 -39.9946 -2.38419e-05 31.7538 -6.14539 23.1256 -4.81206 -3.32206 3.46575 -19.327 -48.8251 -19.3311 -1.19209e-05 -52.5061 4.76837e-05 2.94619 5.2787 -0.271292 -5.96046e-06 -38.9789 -9.53674e-05 39.649 2.06188 26.7144 1.19209e-05 3.06913 -3.06915 -6.59673 -47.5815 -4.77564 0 35.7299 -2.38419e-05 -61.3413 8.53774e-06 -6.11386 17.7338 1.19209e-05 4.76837e-05 -5.12449 76.0601 -27.013 20.0484 -5.96046e-05 -2.38419e-05 1.26088e-05 1.70755e-06 -82.2876 21.8389 0 -1.19209e-05 -10.4918 0.0546739 -2.29601 0.0062 0.0497 0.0339 0 0 0 0 0.0215 0 0 0 0 0 0.022 0 0 0 0 0 0.017 0 0 0 0 -0.0068 0.0873 0.0207 0 0 0 0 0.0267 0 0 0 0 0 0.0213 0 0 0 0 0 0.018 0 0 0 0 -0.0067 0.0922 0.0055 0 0 0 0 0.0266 0 0 0 0 0 0.0228 0 0 0 0 0 0.015 0 0 0 0 -0.0067 0.0925 -0.0113 0 0 0 0 0.0247 0 0 0 0 0 0.0221 0 0 0 0 0 0.018 0 0 0 0 -0.0066 0.0935 -0.0272 0 0 0 0 0.0163 0 0 0 0 0 0.0171 0 0 0 0 0 0.018 0 0 0 0 0 35.7299 -2.38419e-05 55.5792 -6.83019e-06 5.47401 -19.7992 0 4.76837e-05 -2.90636 63.8896 27.6512 -21.6316 2.38419e-05 -2.98023e-06 4.84298e-06 -3.57518e-06 28.3827 -21.9864 0 -1.19209e-05 10.1426 0.0848632 -6.23573 -0.0062 0.0497 0.0339 0 0 0 0 0.0215 0 0 0 0 0 0.022 0 0 0 0 0 0.017 0 0 0 0 0.0068 0.0873 0.0207 0 0 0 0 0.0267 0 0 0 0 0 0.0213 0 0 0 0 0 0.018 0 0 0 0 0.0067 0.0922 0.0055 0 0 0 0 0.0266 0 0 0 0 0 0.0228 0 0 0 0 0 0.015 0 0 0 0 0.0067 0.0925 -0.0113 0 0 0 0 0.0247 0 0 0 0 0 0.0221 0 0 0 0 0 0.018 0 0 0 0 0.0066 0.0935 -0.0272 0 0 0 0 0.0163 0 0 0 0 0 0.0171 0 0 0 0 0 0.018 0 0 0 0 0 35.7299 -2.38419e-05 47.2291 -20.0338 20.3208 0 6.71425 2.38419e-05 9.07134e-06 -8.64446e-06 -3.41509e-06 
27.5963 42.5095 -256.865 -15.6125 50.3495 31.1232 4.46836 -2.07582 3.26574 -18.9855 -23.7977 -10.6123 -2.38419e-05 -50.8407 0 6.16696 -22.1218 -7.48959 2.98023e-05 -40.0088 -2.38419e-05 33.3691 -3.54187 23.1537 -4.97671 -3.46924 3.46582 -18.9051 -48.8785 -20.4687 -5.96046e-06 -52.3613 0 2.76099 5.48904 -0.264311 5.96046e-06 -38.8994 0 40.4435 3.41992 26.3792 -2.38419e-05 3.1051 -3.10512 -5.39832 -47.6656 -3.90765 -2.38419e-05 35.7299 2.38419e-05 -62.2573 1.10991e-05 -6.12409 18.3385 3.57628e-05 -2.38419e-05 -2.20596 76.2001 -29.7734 19.5761 -3.57628e-05 -1.19209e-05 2.67321e-05 -1.02453e-05 -82.4693 21.8232 2.38419e-05 1.19209e-05 -10.3367 0.0609286 -2.71051 0.0062 0.0497 0.0339 0 0 0 0 0.0215 0 0 0 0 0 0.022 0 0 0 0 0 0.017 0 0 0 0 -0.0068 0.0873 0.0207 0 0 0 0 0.0267 0 0 0 0 0 0.0213 0 0 0 0 0 0.018 0 0 0 0 -0.0067 0.0922 0.0055 0 0 0 0 0.0266 0 0 0 0 0 0.0228 0 0 0 0 0 0.015 0 0 0 0 -0.0067 0.0925 -0.0113 0 0 0 0 0.0247 0 0 0 0 0 0.0221 0 0 0 0 0 0.018 0 0 0 0 -0.0066 0.0935 -0.0272 0 0 0 0 0.0163 0 0 0 0 0 0.0171 0 0 0 0 0 0.018 0 0 0 0 -2.38419e-05 35.7299 2.38419e-05 56.0335 -3.41509e-06 5.5272 -20.3117 -1.78814e-05 -2.38419e-05 -2.90532 63.1667 27.5391 -21.6815 4.76837e-05 -3.72529e-06 -1.04403e-06 -1.70755e-06 27.1149 -21.9356 -2.38419e-05 0 10.0195 0.0634977 -6.13714 -0.0062 0.0497 0.0339 0 0 0 0 0.0215 0 0 0 0 0 0.022 0 0 0 0 0 0.017 0 0 0 0 0.0068 0.0873 0.0207 0 0 0 0 0.0267 0 0 0 0 0 0.0213 0 0 0 0 0 0.018 0 0 0 0 0.0067 0.0922 0.0055 0 0 0 0 0.0266 0 0 0 0 0 0.0228 0 0 0 0 0 0.015 0 0 0 0 0.0067 0.0925 -0.0113 0 0 0 0 0.0247 0 0 0 0 0 0.0221 0 0 0 0 0 0.018 0 0 0 0 0.0066 0.0935 -0.0272 0 0 0 0 0.0163 0 0 0 0 0 0.0171 0 0 0 0 0 0.018 0 0 0 0 -2.38419e-05 35.7299 2.38419e-05 39.4537 -16.7798 13.3651 1.19209e-05 5.59493 -1.19209e-05 9.60496e-06 -8.84456e-06 -1.70755e-06 
27.8344 42.544 -257.03 -15.5163 50.3547 31.1161 4.81464 -1.93913 3.20597 -19.7346 -23.6831 -10.929 3.57628e-05 -51.0123 -7.15256e-05 6.85772 -22.116 -7.93449 -1.78814e-05 -40.0663 -4.76837e-05 34.7693 -1.25447 23.1135 -5.17275 -3.58435 3.49934 -19.3151 -48.9681 -21.3447 -1.78814e-05 -52.3246 7.15256e-05 2.77375 5.64442 -0.27302 0 -38.8219 -2.38419e-05 41.1461 4.60843 26.0452 -1.19209e-05 3.10508 -3.1051 -4.9654 -47.7819 -3.58433 -2.38419e-05 35.7299 0 -62.8708 1.8783e-05 -6.46301 18.4498 0 0 -3.48374 76.2227 -28.1392 19.6322 0 0 -2.8286e-05 -1.70755e-06 -83.0908 21.8166 2.38419e-05 -1.19209e-05 -10.1981 0.0646684 -3.10186 0.0062 0.0497 0.0339 0 0 0 0 0.0215 0 0 0 0 0 0.022 0 0 0 0 0 0.017 0 0 0 0 -0.0068 0.0873 0.0207 0 0 0 0 0.0267 0 0 0 0 0 0.0213 0 0 0 0 0 0.018 0 0 0 0 -0.0067 0.0922 0.0055 0 0 0 0 0.0266 0 0 0 0 0 0.0228 0 0 0 0 0 0.015 0 0 0 0 -0.0067 0.0925 -0.0113 0 0 0 0 0.0247 0 0 0 0 0 0.0221 0 0 0 0 0 0.018 0 0 0 0 -0.0066 0.0935 -0.0272 0 0 0 0 0.0163 0 0 0 0 0 0.0171 0 0 0 0 0 0.018 0 0 0 0 -2.38419e-05 35.7299 0 55.7214 -6.83019e-06 5.8312 -20.4407 -1.19209e-05 7.15256e-05 -0.954054 62.3828 23.4164 -22.0824 0 -1.99303e-05 9.32984e-06 -8.32429e-06 32.4094 -21.7717 4.76837e-05 -1.19209e-05 9.71438 0.0476386 -5.69708 -0.0062 0.0497 0.0339 0 0 0 0 0.0215 0 0 0 0 0 0.022 0 0 0 0 0 0.017 0 0 0 0 0.0068 0.0873 0.0207 0 0 0 0 0.0267 0 0 0 0 0 0.0213 0 0 0 0 0 0.018 0 0 0 0 0.0067 0.0922 0.0055 0 0 0 0 0.0266 0 0 0 0 0 0.0228 0 0 0 0 0 0.015 0 0 0 0 0.0067 0.0925 -0.0113 0 0 0 0 0.0247 0 0 0 0 0 0.0221 0 0 0 0 0 0.018 0 0 0 0 0.0066 0.0935 -0.0272 0 0 0 0 0.0163 0 0 0 0 0 0.0171 0 0 0 0 0 0.018 0 0 0 0 -2.38419e-05 35.7299 0 31.4747 -14.2883 8.59184 0 4.8404 0 1.18728e-05 -1.04054e-05 3.4151e-06 
